STARTFONT 2.1
FONT -FontForge-Bm437 Nix8810 M15-Book-R-Normal--16-150-75-75-C-80-ISO10646-1
SIZE 15 75 75
FONTBOUNDINGBOX 8 16 0 -4
COMMENT "Generated by fontforge, http://fontforge.sourceforge.net"
COMMENT "Outline (vector) version by VileR, 2020"
STARTPROPERTIES 41
FOUNDRY "FontForge"
FAMILY_NAME "Bm437 Nix8810 M15"
WEIGHT_NAME "Book"
SLANT "R"
SETWIDTH_NAME "Normal"
ADD_STYLE_NAME ""
PIXEL_SIZE 16
POINT_SIZE 150
RESOLUTION_X 75
RESOLUTION_Y 75
SPACING "C"
AVERAGE_WIDTH 80
CHARSET_REGISTRY "ISO10646"
CHARSET_ENCODING "1"
FONTNAME_REGISTRY ""
CHARSET_COLLECTIONS "ASCII ISOLatin1Encoding ISO10646-1"
FONT_NAME "Bm437_Nix8810_M15"
FACE_NAME "Bm437 Nix8810 M15"
COPYRIGHT "Outline (vector) version by VileR, 2020"
FONT_VERSION "v2.2-2020-11"
FONT_ASCENT 12
FONT_DESCENT 4
UNDERLINE_POSITION -2
UNDERLINE_THICKNESS 1
X_HEIGHT 7
CAP_HEIGHT 10
DEFAULT_CHAR 1
RAW_ASCENT 750
RAW_DESCENT 250
NORM_SPACE 8
RELATIVE_WEIGHT 40
RELATIVE_SETWIDTH 50
SUPERSCRIPT_X 0
SUPERSCRIPT_Y 8
SUPERSCRIPT_SIZE 16
SUBSCRIPT_X 0
SUBSCRIPT_Y 8
SUBSCRIPT_SIZE 16
FIGURE_WIDTH 8
AVG_LOWERCASE_WIDTH 80
AVG_UPPERCASE_WIDTH 80
ENDPROPERTIES
CHARS 295
STARTCHAR uni0000
ENCODING 0
SWIDTH 500 0
DWIDTH 8 0
BBX 1 1 7 -4
BITMAP
00
ENDCHAR
STARTCHAR uni0001
ENCODING 1
SWIDTH 500 0
DWIDTH 8 0
BBX 8 11 0 0
BITMAP
7E
81
A5
A5
81
99
81
A5
99
81
7E
ENDCHAR
STARTCHAR uni0002
ENCODING 2
SWIDTH 500 0
DWIDTH 8 0
BBX 8 11 0 0
BITMAP
7E
FF
DB
DB
FF
E7
FF
DB
E7
FF
7E
ENDCHAR
STARTCHAR uni0003
ENCODING 3
SWIDTH 500 0
DWIDTH 8 0
BBX 7 11 0 0
BITMAP
6C
FE
FE
FE
FE
FE
FE
FE
7C
38
10
ENDCHAR
STARTCHAR uni0004
ENCODING 4
SWIDTH 500 0
DWIDTH 8 0
BBX 7 11 0 0
BITMAP
10
10
38
38
7C
FE
7C
38
38
10
10
ENDCHAR
STARTCHAR uni0005
ENCODING 5
SWIDTH 500 0
DWIDTH 8 0
BBX 7 11 0 0
BITMAP
10
38
7C
38
54
FE
FE
FE
54
10
38
ENDCHAR
STARTCHAR uni0006
ENCODING 6
SWIDTH 500 0
DWIDTH 8 0
BBX 7 11 0 0
BITMAP
10
38
7C
FE
FE
FE
FE
D6
10
10
38
ENDCHAR
STARTCHAR uni0007
ENCODING 7
SWIDTH 500 0
DWIDTH 8 0
BBX 2 2 3 3
BITMAP
C0
C0
ENDCHAR
STARTCHAR uni0008
ENCODING 8
SWIDTH 500 0
DWIDTH 8 0
BBX 8 16 0 -4
BITMAP
FF
FF
FF
FF
FF
FF
FF
E7
E7
FF
FF
FF
FF
FF
FF
FF
ENDCHAR
STARTCHAR uni0009
ENCODING 9
SWIDTH 500 0
DWIDTH 8 0
BBX 8 8 0 0
BITMAP
3C
7E
E7
C3
C3
E7
7E
3C
ENDCHAR
STARTCHAR uni000A
ENCODING 10
SWIDTH 500 0
DWIDTH 8 0
BBX 8 16 0 -4
BITMAP
FF
FF
FF
FF
C3
81
18
3C
3C
18
81
C3
FF
FF
FF
FF
ENDCHAR
STARTCHAR uni000B
ENCODING 11
SWIDTH 500 0
DWIDTH 8 0
BBX 5 11 1 0
BITMAP
20
70
A8
20
20
70
D8
88
88
D8
70
ENDCHAR
STARTCHAR uni000C
ENCODING 12
SWIDTH 500 0
DWIDTH 8 0
BBX 5 11 1 0
BITMAP
70
D8
88
88
D8
70
20
20
F8
20
20
ENDCHAR
STARTCHAR uni000D
ENCODING 13
SWIDTH 500 0
DWIDTH 8 0
BBX 7 11 0 0
BITMAP
08
08
0C
0E
0A
0A
08
38
78
F8
70
ENDCHAR
STARTCHAR uni000E
ENCODING 14
SWIDTH 500 0
DWIDTH 8 0
BBX 7 12 0 -1
BITMAP
20
30
28
24
32
2A
66
E2
C2
06
0E
0C
ENDCHAR
STARTCHAR uni000F
ENCODING 15
SWIDTH 500 0
DWIDTH 8 0
BBX 7 9 0 0
BITMAP
10
92
7C
6C
C6
6C
7C
92
10
ENDCHAR
STARTCHAR uni0010
ENCODING 16
SWIDTH 500 0
DWIDTH 8 0
BBX 6 11 1 0
BITMAP
80
C0
E0
F0
F8
FC
F8
F0
E0
C0
80
ENDCHAR
STARTCHAR uni0011
ENCODING 17
SWIDTH 500 0
DWIDTH 8 0
BBX 6 11 1 0
BITMAP
04
0C
1C
3C
7C
FC
7C
3C
1C
0C
04
ENDCHAR
STARTCHAR uni0012
ENCODING 18
SWIDTH 500 0
DWIDTH 8 0
BBX 6 11 1 0
BITMAP
30
78
B4
30
30
30
30
30
B4
78
30
ENDCHAR
STARTCHAR uni0013
ENCODING 19
SWIDTH 500 0
DWIDTH 8 0
BBX 6 11 0 0
BITMAP
CC
CC
CC
CC
CC
CC
CC
00
00
CC
CC
ENDCHAR
STARTCHAR uni0014
ENCODING 20
SWIDTH 500 0
DWIDTH 8 0
BBX 7 11 0 0
BITMAP
7E
FE
D4
D4
D4
D4
F4
74
14
14
14
ENDCHAR
STARTCHAR uni0015
ENCODING 21
SWIDTH 500 0
DWIDTH 8 0
BBX 5 11 1 0
BITMAP
70
F8
80
F0
78
88
F0
78
08
F8
70
ENDCHAR
STARTCHAR uni0016
ENCODING 22
SWIDTH 500 0
DWIDTH 8 0
BBX 7 3 0 4
BITMAP
FE
FE
FE
ENDCHAR
STARTCHAR uni0017
ENCODING 23
SWIDTH 500 0
DWIDTH 8 0
BBX 6 11 1 0
BITMAP
30
78
30
30
30
30
30
30
78
30
FC
ENDCHAR
STARTCHAR uni0018
ENCODING 24
SWIDTH 500 0
DWIDTH 8 0
BBX 6 11 1 0
BITMAP
30
78
B4
30
30
30
30
30
30
30
30
ENDCHAR
STARTCHAR uni0019
ENCODING 25
SWIDTH 500 0
DWIDTH 8 0
BBX 6 11 1 0
BITMAP
30
30
30
30
30
30
30
30
B4
78
30
ENDCHAR
STARTCHAR uni001A
ENCODING 26
SWIDTH 500 0
DWIDTH 8 0
BBX 7 6 0 2
BITMAP
08
04
FE
FE
04
08
ENDCHAR
STARTCHAR uni001B
ENCODING 27
SWIDTH 500 0
DWIDTH 8 0
BBX 7 6 0 2
BITMAP
20
40
FE
FE
40
20
ENDCHAR
STARTCHAR uni001C
ENCODING 28
SWIDTH 500 0
DWIDTH 8 0
BBX 7 4 0 4
BITMAP
C0
C0
FE
FE
ENDCHAR
STARTCHAR uni001D
ENCODING 29
SWIDTH 500 0
DWIDTH 8 0
BBX 7 4 0 3
BITMAP
44
FE
FE
44
ENDCHAR
STARTCHAR uni001E
ENCODING 30
SWIDTH 500 0
DWIDTH 8 0
BBX 5 3 1 0
BITMAP
20
70
F8
ENDCHAR
STARTCHAR uni001F
ENCODING 31
SWIDTH 500 0
DWIDTH 8 0
BBX 5 3 1 0
BITMAP
F8
70
20
ENDCHAR
STARTCHAR space
ENCODING 32
SWIDTH 500 0
DWIDTH 8 0
BBX 1 1 7 -4
BITMAP
00
ENDCHAR
STARTCHAR exclam
ENCODING 33
SWIDTH 500 0
DWIDTH 8 0
BBX 2 11 2 0
BITMAP
C0
C0
C0
C0
C0
C0
C0
00
00
C0
C0
ENDCHAR
STARTCHAR quotedbl
ENCODING 34
SWIDTH 500 0
DWIDTH 8 0
BBX 6 3 1 8
BITMAP
CC
CC
CC
ENDCHAR
STARTCHAR numbersign
ENCODING 35
SWIDTH 500 0
DWIDTH 8 0
BBX 7 11 0 0
BITMAP
44
46
7E
FC
C4
44
46
7E
FC
C4
44
ENDCHAR
STARTCHAR dollar
ENCODING 36
SWIDTH 500 0
DWIDTH 8 0
BBX 7 11 0 0
BITMAP
10
7C
FE
D6
70
38
1C
D6
FE
7C
10
ENDCHAR
STARTCHAR percent
ENCODING 37
SWIDTH 500 0
DWIDTH 8 0
BBX 7 12 0 -1
BITMAP
42
E6
A4
EC
48
18
30
24
6E
4A
CE
84
ENDCHAR
STARTCHAR ampersand
ENCODING 38
SWIDTH 500 0
DWIDTH 8 0
BBX 7 11 0 0
BITMAP
38
6C
6C
38
30
38
7A
CE
CC
7C
36
ENDCHAR
STARTCHAR quotesingle
ENCODING 39
SWIDTH 500 0
DWIDTH 8 0
BBX 4 4 1 7
BITMAP
70
70
60
C0
ENDCHAR
STARTCHAR parenleft
ENCODING 40
SWIDTH 500 0
DWIDTH 8 0
BBX 5 11 2 0
BITMAP
18
38
70
60
E0
E0
E0
60
70
38
18
ENDCHAR
STARTCHAR parenright
ENCODING 41
SWIDTH 500 0
DWIDTH 8 0
BBX 5 11 1 0
BITMAP
C0
E0
70
30
38
38
38
30
70
E0
C0
ENDCHAR
STARTCHAR asterisk
ENCODING 42
SWIDTH 500 0
DWIDTH 8 0
BBX 7 8 0 1
BITMAP
6C
6C
38
FE
FE
38
6C
6C
ENDCHAR
STARTCHAR plus
ENCODING 43
SWIDTH 500 0
DWIDTH 8 0
BBX 6 8 0 1
BITMAP
30
30
30
FC
FC
30
30
30
ENDCHAR
STARTCHAR comma
ENCODING 44
SWIDTH 500 0
DWIDTH 8 0
BBX 4 4 1 -1
BITMAP
70
70
60
C0
ENDCHAR
STARTCHAR hyphen
ENCODING 45
SWIDTH 500 0
DWIDTH 8 0
BBX 7 2 0 4
BITMAP
FE
FE
ENDCHAR
STARTCHAR period
ENCODING 46
SWIDTH 500 0
DWIDTH 8 0
BBX 3 3 2 0
BITMAP
E0
E0
E0
ENDCHAR
STARTCHAR slash
ENCODING 47
SWIDTH 500 0
DWIDTH 8 0
BBX 6 11 0 0
BITMAP
0C
0C
18
18
30
30
60
60
C0
C0
C0
ENDCHAR
STARTCHAR zero
ENCODING 48
SWIDTH 500 0
DWIDTH 8 0
BBX 7 11 0 0
BITMAP
7C
FE
C6
CE
DE
F6
E6
C6
C6
FE
7C
ENDCHAR
STARTCHAR one
ENCODING 49
SWIDTH 500 0
DWIDTH 8 0
BBX 6 11 0 0
BITMAP
10
30
70
F0
30
30
30
30
30
FC
FC
ENDCHAR
STARTCHAR two
ENCODING 50
SWIDTH 500 0
DWIDTH 8 0
BBX 7 11 0 0
BITMAP
7C
FE
C6
C6
0E
1C
38
70
E0
FE
FE
ENDCHAR
STARTCHAR three
ENCODING 51
SWIDTH 500 0
DWIDTH 8 0
BBX 7 11 0 0
BITMAP
7C
FE
C6
06
3C
3C
06
06
C6
FE
7C
ENDCHAR
STARTCHAR four
ENCODING 52
SWIDTH 500 0
DWIDTH 8 0
BBX 7 11 0 0
BITMAP
04
0C
1C
3C
6C
CC
FE
FE
0C
1E
1E
ENDCHAR
STARTCHAR five
ENCODING 53
SWIDTH 500 0
DWIDTH 8 0
BBX 7 11 0 0
BITMAP
FE
FE
C0
C0
FC
FE
06
06
C6
FE
7C
ENDCHAR
STARTCHAR six
ENCODING 54
SWIDTH 500 0
DWIDTH 8 0
BBX 7 11 0 0
BITMAP
38
70
E0
C0
FC
FE
C6
C6
C6
FE
7C
ENDCHAR
STARTCHAR seven
ENCODING 55
SWIDTH 500 0
DWIDTH 8 0
BBX 7 11 0 0
BITMAP
FE
FE
C6
06
0E
0C
1C
18
18
18
18
ENDCHAR
STARTCHAR eight
ENCODING 56
SWIDTH 500 0
DWIDTH 8 0
BBX 7 11 0 0
BITMAP
7C
FE
C6
C6
7C
7C
C6
C6
C6
FE
7C
ENDCHAR
STARTCHAR nine
ENCODING 57
SWIDTH 500 0
DWIDTH 8 0
BBX 7 11 0 0
BITMAP
7C
FE
C6
C6
C6
FE
7E
06
06
7E
7C
ENDCHAR
STARTCHAR colon
ENCODING 58
SWIDTH 500 0
DWIDTH 8 0
BBX 2 9 2 1
BITMAP
C0
C0
C0
00
00
00
C0
C0
C0
ENDCHAR
STARTCHAR semicolon
ENCODING 59
SWIDTH 500 0
DWIDTH 8 0
BBX 2 10 2 0
BITMAP
C0
C0
C0
00
00
C0
C0
C0
40
80
ENDCHAR
STARTCHAR less
ENCODING 60
SWIDTH 500 0
DWIDTH 8 0
BBX 7 11 0 0
BITMAP
06
0C
18
30
60
C0
60
30
18
0C
06
ENDCHAR
STARTCHAR equal
ENCODING 61
SWIDTH 500 0
DWIDTH 8 0
BBX 7 6 0 2
BITMAP
FE
FE
00
00
FE
FE
ENDCHAR
STARTCHAR greater
ENCODING 62
SWIDTH 500 0
DWIDTH 8 0
BBX 7 11 0 0
BITMAP
C0
60
30
18
0C
06
0C
18
30
60
C0
ENDCHAR
STARTCHAR question
ENCODING 63
SWIDTH 500 0
DWIDTH 8 0
BBX 6 11 1 0
BITMAP
78
FC
CC
CC
0C
1C
38
30
00
30
30
ENDCHAR
STARTCHAR at
ENCODING 64
SWIDTH 500 0
DWIDTH 8 0
BBX 7 11 0 0
BITMAP
7C
FE
C6
DE
DE
DE
DE
DE
C0
F0
70
ENDCHAR
STARTCHAR A
ENCODING 65
SWIDTH 500 0
DWIDTH 8 0
BBX 7 11 0 0
BITMAP
38
7C
EE
C6
C6
C6
FE
FE
C6
C6
C6
ENDCHAR
STARTCHAR B
ENCODING 66
SWIDTH 500 0
DWIDTH 8 0
BBX 7 11 0 0
BITMAP
FC
FE
66
66
7C
7C
66
66
66
FE
FC
ENDCHAR
STARTCHAR C
ENCODING 67
SWIDTH 500 0
DWIDTH 8 0
BBX 7 11 0 0
BITMAP
7C
FE
C6
C6
C0
C0
C0
C6
C6
FE
7C
ENDCHAR
STARTCHAR D
ENCODING 68
SWIDTH 500 0
DWIDTH 8 0
BBX 7 11 0 0
BITMAP
F8
FC
6E
66
66
66
66
66
6E
FC
F8
ENDCHAR
STARTCHAR E
ENCODING 69
SWIDTH 500 0
DWIDTH 8 0
BBX 7 11 0 0
BITMAP
FE
FE
66
60
78
78
60
60
66
FE
FE
ENDCHAR
STARTCHAR F
ENCODING 70
SWIDTH 500 0
DWIDTH 8 0
BBX 7 11 0 0
BITMAP
FE
FE
66
60
78
78
60
60
60
F0
F0
ENDCHAR
STARTCHAR G
ENCODING 71
SWIDTH 500 0
DWIDTH 8 0
BBX 7 11 0 0
BITMAP
3C
7E
E6
C0
C0
CE
C6
C6
E6
7E
3E
ENDCHAR
STARTCHAR H
ENCODING 72
SWIDTH 500 0
DWIDTH 8 0
BBX 7 11 0 0
BITMAP
C6
C6
C6
C6
FE
FE
C6
C6
C6
C6
C6
ENDCHAR
STARTCHAR I
ENCODING 73
SWIDTH 500 0
DWIDTH 8 0
BBX 4 11 2 0
BITMAP
F0
F0
60
60
60
60
60
60
60
F0
F0
ENDCHAR
STARTCHAR J
ENCODING 74
SWIDTH 500 0
DWIDTH 8 0
BBX 7 11 0 0
BITMAP
1E
1E
0C
0C
0C
0C
0C
CC
CC
FC
78
ENDCHAR
STARTCHAR K
ENCODING 75
SWIDTH 500 0
DWIDTH 8 0
BBX 7 11 0 0
BITMAP
C6
CE
DC
F8
F0
E0
F0
F8
DC
CE
C6
ENDCHAR
STARTCHAR L
ENCODING 76
SWIDTH 500 0
DWIDTH 8 0
BBX 7 11 0 0
BITMAP
F0
F0
60
60
60
60
60
62
66
FE
FE
ENDCHAR
STARTCHAR M
ENCODING 77
SWIDTH 500 0
DWIDTH 8 0
BBX 7 11 0 0
BITMAP
82
C6
C6
EE
FE
FE
D6
C6
C6
C6
C6
ENDCHAR
STARTCHAR N
ENCODING 78
SWIDTH 500 0
DWIDTH 8 0
BBX 7 11 0 0
BITMAP
C6
C6
E6
E6
F6
FE
FE
DE
CE
CE
C6
ENDCHAR
STARTCHAR O
ENCODING 79
SWIDTH 500 0
DWIDTH 8 0
BBX 7 11 0 0
BITMAP
38
7C
EE
C6
C6
C6
C6
C6
EE
7C
38
ENDCHAR
STARTCHAR P
ENCODING 80
SWIDTH 500 0
DWIDTH 8 0
BBX 7 11 0 0
BITMAP
FC
FE
C6
C6
FE
FC
C0
C0
C0
C0
C0
ENDCHAR
STARTCHAR Q
ENCODING 81
SWIDTH 500 0
DWIDTH 8 0
BBX 7 12 0 -1
BITMAP
38
7C
EE
C6
C6
C6
C6
E6
FE
7C
38
1C
ENDCHAR
STARTCHAR R
ENCODING 82
SWIDTH 500 0
DWIDTH 8 0
BBX 7 11 0 0
BITMAP
FC
FE
C6
C6
FE
FC
F0
F8
DC
CE
C6
ENDCHAR
STARTCHAR S
ENCODING 83
SWIDTH 500 0
DWIDTH 8 0
BBX 7 11 0 0
BITMAP
7C
FE
C6
C0
F0
7C
1E
06
C6
FE
7C
ENDCHAR
STARTCHAR T
ENCODING 84
SWIDTH 500 0
DWIDTH 8 0
BBX 6 11 0 0
BITMAP
FC
FC
B4
30
30
30
30
30
30
78
78
ENDCHAR
STARTCHAR U
ENCODING 85
SWIDTH 500 0
DWIDTH 8 0
BBX 7 11 0 0
BITMAP
C6
C6
C6
C6
C6
C6
C6
C6
C6
FE
7C
ENDCHAR
STARTCHAR V
ENCODING 86
SWIDTH 500 0
DWIDTH 8 0
BBX 7 11 0 0
BITMAP
C6
C6
C6
C6
C6
C6
C6
EE
7C
38
10
ENDCHAR
STARTCHAR W
ENCODING 87
SWIDTH 500 0
DWIDTH 8 0
BBX 7 11 0 0
BITMAP
C6
C6
C6
D6
D6
D6
D6
FE
FE
7C
6C
ENDCHAR
STARTCHAR X
ENCODING 88
SWIDTH 500 0
DWIDTH 8 0
BBX 7 11 0 0
BITMAP
C6
C6
EE
6C
7C
38
7C
6C
EE
C6
C6
ENDCHAR
STARTCHAR Y
ENCODING 89
SWIDTH 500 0
DWIDTH 8 0
BBX 6 11 0 0
BITMAP
CC
CC
CC
CC
CC
FC
78
30
30
78
78
ENDCHAR
STARTCHAR Z
ENCODING 90
SWIDTH 500 0
DWIDTH 8 0
BBX 7 11 0 0
BITMAP
FE
FE
06
0E
1C
38
70
E0
C0
FE
FE
ENDCHAR
STARTCHAR bracketleft
ENCODING 91
SWIDTH 500 0
DWIDTH 8 0
BBX 4 11 3 0
BITMAP
F0
C0
C0
C0
C0
C0
C0
C0
C0
C0
F0
ENDCHAR
STARTCHAR backslash
ENCODING 92
SWIDTH 500 0
DWIDTH 8 0
BBX 6 11 0 0
BITMAP
C0
C0
60
60
30
30
18
18
0C
0C
0C
ENDCHAR
STARTCHAR bracketright
ENCODING 93
SWIDTH 500 0
DWIDTH 8 0
BBX 4 11 0 0
BITMAP
F0
30
30
30
30
30
30
30
30
30
F0
ENDCHAR
STARTCHAR asciicircum
ENCODING 94
SWIDTH 500 0
DWIDTH 8 0
BBX 5 3 1 8
BITMAP
20
70
D8
ENDCHAR
STARTCHAR underscore
ENCODING 95
SWIDTH 500 0
DWIDTH 8 0
BBX 8 2 0 -3
BITMAP
FF
FF
ENDCHAR
STARTCHAR grave
ENCODING 96
SWIDTH 500 0
DWIDTH 8 0
BBX 3 4 3 7
BITMAP
C0
C0
40
20
ENDCHAR
STARTCHAR a
ENCODING 97
SWIDTH 500 0
DWIDTH 8 0
BBX 7 8 0 0
BITMAP
78
7C
0C
7C
FC
CC
FE
76
ENDCHAR
STARTCHAR b
ENCODING 98
SWIDTH 500 0
DWIDTH 8 0
BBX 7 11 0 0
BITMAP
E0
E0
60
78
7C
66
66
66
66
FE
FC
ENDCHAR
STARTCHAR c
ENCODING 99
SWIDTH 500 0
DWIDTH 8 0
BBX 7 8 0 0
BITMAP
7C
FE
C6
C0
C0
C6
FE
7C
ENDCHAR
STARTCHAR d
ENCODING 100
SWIDTH 500 0
DWIDTH 8 0
BBX 7 11 0 0
BITMAP
1C
0C
0C
3C
7C
CC
CC
CC
CC
FE
76
ENDCHAR
STARTCHAR e
ENCODING 101
SWIDTH 500 0
DWIDTH 8 0
BBX 7 8 0 0
BITMAP
7C
FE
C6
FE
FE
C0
FE
7C
ENDCHAR
STARTCHAR f
ENCODING 102
SWIDTH 500 0
DWIDTH 8 0
BBX 7 11 0 0
BITMAP
1C
3E
36
30
FC
FC
30
30
30
78
78
ENDCHAR
STARTCHAR g
ENCODING 103
SWIDTH 500 0
DWIDTH 8 0
BBX 7 9 0 -1
BITMAP
7A
FE
C6
C6
FE
7E
06
7E
7C
ENDCHAR
STARTCHAR h
ENCODING 104
SWIDTH 500 0
DWIDTH 8 0
BBX 7 11 0 0
BITMAP
E0
60
60
78
7C
66
66
66
66
66
E6
ENDCHAR
STARTCHAR i
ENCODING 105
SWIDTH 500 0
DWIDTH 8 0
BBX 4 10 1 0
BITMAP
60
60
00
E0
E0
60
60
60
F0
F0
ENDCHAR
STARTCHAR j
ENCODING 106
SWIDTH 500 0
DWIDTH 8 0
BBX 6 11 0 -1
BITMAP
0C
0C
00
1C
1C
0C
0C
CC
CC
FC
78
ENDCHAR
STARTCHAR k
ENCODING 107
SWIDTH 500 0
DWIDTH 8 0
BBX 7 11 0 0
BITMAP
C0
C0
C0
CE
DC
F8
F0
F0
F8
DC
CE
ENDCHAR
STARTCHAR l
ENCODING 108
SWIDTH 500 0
DWIDTH 8 0
BBX 4 11 1 0
BITMAP
E0
E0
60
60
60
60
60
60
60
F0
F0
ENDCHAR
STARTCHAR m
ENCODING 109
SWIDTH 500 0
DWIDTH 8 0
BBX 7 8 0 0
BITMAP
AC
FE
FE
D6
D6
D6
D6
C6
ENDCHAR
STARTCHAR n
ENCODING 110
SWIDTH 500 0
DWIDTH 8 0
BBX 7 8 0 0
BITMAP
DC
FE
66
66
66
66
66
66
ENDCHAR
STARTCHAR o
ENCODING 111
SWIDTH 500 0
DWIDTH 8 0
BBX 7 8 0 0
BITMAP
7C
FE
C6
C6
C6
C6
FE
7C
ENDCHAR
STARTCHAR p
ENCODING 112
SWIDTH 500 0
DWIDTH 8 0
BBX 7 9 0 -1
BITMAP
FC
FE
66
66
7E
7C
60
F0
F0
ENDCHAR
STARTCHAR q
ENCODING 113
SWIDTH 500 0
DWIDTH 8 0
BBX 7 9 0 -1
BITMAP
76
FE
CC
CC
FC
7C
0C
1E
1E
ENDCHAR
STARTCHAR r
ENCODING 114
SWIDTH 500 0
DWIDTH 8 0
BBX 7 8 0 0
BITMAP
DC
FE
76
66
60
60
60
60
ENDCHAR
STARTCHAR s
ENCODING 115
SWIDTH 500 0
DWIDTH 8 0
BBX 7 8 0 0
BITMAP
7C
FE
E2
78
1C
CE
FE
7C
ENDCHAR
STARTCHAR t
ENCODING 116
SWIDTH 500 0
DWIDTH 8 0
BBX 7 11 0 0
BITMAP
60
60
60
F8
F8
60
60
66
66
7E
3C
ENDCHAR
STARTCHAR u
ENCODING 117
SWIDTH 500 0
DWIDTH 8 0
BBX 7 8 0 0
BITMAP
CC
CC
CC
CC
CC
CC
FE
76
ENDCHAR
STARTCHAR v
ENCODING 118
SWIDTH 500 0
DWIDTH 8 0
BBX 7 8 0 0
BITMAP
C6
C6
C6
C6
EE
7C
38
10
ENDCHAR
STARTCHAR w
ENCODING 119
SWIDTH 500 0
DWIDTH 8 0
BBX 7 8 0 0
BITMAP
C6
C6
D6
D6
D6
FE
FE
6C
ENDCHAR
STARTCHAR x
ENCODING 120
SWIDTH 500 0
DWIDTH 8 0
BBX 7 8 0 0
BITMAP
C6
EE
7C
38
38
7C
EE
C6
ENDCHAR
STARTCHAR y
ENCODING 121
SWIDTH 500 0
DWIDTH 8 0
BBX 7 9 0 -1
BITMAP
E6
E6
66
66
7E
3E
06
7E
7C
ENDCHAR
STARTCHAR z
ENCODING 122
SWIDTH 500 0
DWIDTH 8 0
BBX 7 8 0 0
BITMAP
FE
FE
0E
1C
38
70
FE
FE
ENDCHAR
STARTCHAR braceleft
ENCODING 123
SWIDTH 500 0
DWIDTH 8 0
BBX 4 11 3 0
BITMAP
30
60
60
60
C0
C0
60
60
60
60
30
ENDCHAR
STARTCHAR bar
ENCODING 124
SWIDTH 500 0
DWIDTH 8 0
BBX 2 11 2 0
BITMAP
C0
C0
C0
C0
C0
00
C0
C0
C0
C0
C0
ENDCHAR
STARTCHAR braceright
ENCODING 125
SWIDTH 500 0
DWIDTH 8 0
BBX 4 11 0 0
BITMAP
C0
60
60
60
30
30
60
60
60
60
C0
ENDCHAR
STARTCHAR asciitilde
ENCODING 126
SWIDTH 500 0
DWIDTH 8 0
BBX 5 4 1 7
BITMAP
40
E8
B8
10
ENDCHAR
STARTCHAR uni007F
ENCODING 127
SWIDTH 500 0
DWIDTH 8 0
BBX 7 7 0 1
BITMAP
10
10
38
28
6C
44
FE
ENDCHAR
STARTCHAR uni00A0
ENCODING 160
SWIDTH 500 0
DWIDTH 8 0
BBX 1 1 7 -4
BITMAP
00
ENDCHAR
STARTCHAR exclamdown
ENCODING 161
SWIDTH 500 0
DWIDTH 8 0
BBX 2 11 2 0
BITMAP
C0
C0
00
00
C0
C0
C0
C0
C0
C0
C0
ENDCHAR
STARTCHAR cent
ENCODING 162
SWIDTH 500 0
DWIDTH 8 0
BBX 7 11 0 0
BITMAP
18
18
7C
EE
C0
C0
C0
EE
7C
18
18
ENDCHAR
STARTCHAR sterling
ENCODING 163
SWIDTH 500 0
DWIDTH 8 0
BBX 7 11 0 0
BITMAP
38
7C
64
60
F8
F8
60
E0
F2
FE
DC
ENDCHAR
STARTCHAR yen
ENCODING 165
SWIDTH 500 0
DWIDTH 8 0
BBX 6 11 0 0
BITMAP
84
CC
78
30
FC
FC
30
FC
FC
30
30
ENDCHAR
STARTCHAR section
ENCODING 167
SWIDTH 500 0
DWIDTH 8 0
BBX 5 11 1 0
BITMAP
70
F8
80
F0
78
88
F0
78
08
F8
70
ENDCHAR
STARTCHAR ordfeminine
ENCODING 170
SWIDTH 500 0
DWIDTH 8 0
BBX 7 9 0 -1
BITMAP
78
0C
7C
FC
CC
FC
76
00
FE
ENDCHAR
STARTCHAR guillemotleft
ENCODING 171
SWIDTH 500 0
DWIDTH 8 0
BBX 7 6 0 3
BITMAP
36
6C
D8
D8
6C
36
ENDCHAR
STARTCHAR logicalnot
ENCODING 172
SWIDTH 500 0
DWIDTH 8 0
BBX 7 5 0 2
BITMAP
FE
FE
06
06
06
ENDCHAR
STARTCHAR degree
ENCODING 176
SWIDTH 500 0
DWIDTH 8 0
BBX 6 6 0 5
BITMAP
30
48
84
84
48
30
ENDCHAR
STARTCHAR plusminus
ENCODING 177
SWIDTH 500 0
DWIDTH 8 0
BBX 6 11 0 0
BITMAP
30
30
30
FC
FC
30
30
30
00
FC
FC
ENDCHAR
STARTCHAR uni00B2
ENCODING 178
SWIDTH 500 0
DWIDTH 8 0
BBX 5 6 0 5
BITMAP
70
98
18
30
40
F8
ENDCHAR
STARTCHAR mu
ENCODING 181
SWIDTH 500 0
DWIDTH 8 0
BBX 7 9 0 -1
BITMAP
CC
CC
CC
CC
CC
FE
F6
C0
C0
ENDCHAR
STARTCHAR paragraph
ENCODING 182
SWIDTH 500 0
DWIDTH 8 0
BBX 7 11 0 0
BITMAP
7E
FE
D4
D4
D4
D4
F4
74
14
14
14
ENDCHAR
STARTCHAR periodcentered
ENCODING 183
SWIDTH 500 0
DWIDTH 8 0
BBX 1 2 3 4
BITMAP
80
80
ENDCHAR
STARTCHAR ordmasculine
ENCODING 186
SWIDTH 500 0
DWIDTH 8 0
BBX 7 9 0 -1
BITMAP
7C
FE
C6
C6
C6
FE
7C
00
FE
ENDCHAR
STARTCHAR guillemotright
ENCODING 187
SWIDTH 500 0
DWIDTH 8 0
BBX 7 6 0 3
BITMAP
D8
6C
36
36
6C
D8
ENDCHAR
STARTCHAR onequarter
ENCODING 188
SWIDTH 500 0
DWIDTH 8 0
BBX 7 11 0 0
BITMAP
40
42
46
4C
58
30
64
CC
94
3E
04
ENDCHAR
STARTCHAR onehalf
ENCODING 189
SWIDTH 500 0
DWIDTH 8 0
BBX 7 11 0 0
BITMAP
40
42
46
4C
58
30
6E
C2
9E
10
1E
ENDCHAR
STARTCHAR questiondown
ENCODING 191
SWIDTH 500 0
DWIDTH 8 0
BBX 7 11 0 0
BITMAP
30
30
00
30
30
70
E0
C6
EE
7C
38
ENDCHAR
STARTCHAR Adieresis
ENCODING 196
SWIDTH 500 0
DWIDTH 8 0
BBX 7 11 0 0
BITMAP
C6
00
38
7C
C6
C6
FE
FE
C6
C6
C6
ENDCHAR
STARTCHAR Aring
ENCODING 197
SWIDTH 500 0
DWIDTH 8 0
BBX 7 11 0 0
BITMAP
38
44
38
00
7C
C6
C6
FE
C6
C6
C6
ENDCHAR
STARTCHAR AE
ENCODING 198
SWIDTH 500 0
DWIDTH 8 0
BBX 7 11 0 0
BITMAP
2E
7E
F8
D8
DE
FE
F8
D8
D8
DE
DE
ENDCHAR
STARTCHAR Ccedilla
ENCODING 199
SWIDTH 500 0
DWIDTH 8 0
BBX 7 11 0 -2
BITMAP
7C
FE
C6
C0
C0
C6
FE
7C
18
08
18
ENDCHAR
STARTCHAR Eacute
ENCODING 201
SWIDTH 500 0
DWIDTH 8 0
BBX 7 11 0 0
BITMAP
18
30
00
FE
FE
60
7C
7C
60
FE
FE
ENDCHAR
STARTCHAR Ntilde
ENCODING 209
SWIDTH 500 0
DWIDTH 8 0
BBX 7 11 0 0
BITMAP
72
8C
00
C6
E6
F6
FE
DE
CE
C6
C6
ENDCHAR
STARTCHAR Odieresis
ENCODING 214
SWIDTH 500 0
DWIDTH 8 0
BBX 7 11 0 0
BITMAP
C6
00
38
7C
EE
C6
C6
C6
EE
7C
38
ENDCHAR
STARTCHAR Udieresis
ENCODING 220
SWIDTH 500 0
DWIDTH 8 0
BBX 7 11 0 0
BITMAP
C6
00
C6
C6
C6
C6
C6
C6
C6
FE
7C
ENDCHAR
STARTCHAR germandbls
ENCODING 223
SWIDTH 500 0
DWIDTH 8 0
BBX 7 11 0 -1
BITMAP
1C
3E
66
66
7C
66
66
6E
6C
E0
C0
ENDCHAR
STARTCHAR agrave
ENCODING 224
SWIDTH 500 0
DWIDTH 8 0
BBX 7 10 0 0
BITMAP
30
18
00
78
0C
7C
FC
CC
FC
76
ENDCHAR
STARTCHAR aacute
ENCODING 225
SWIDTH 500 0
DWIDTH 8 0
BBX 7 10 0 0
BITMAP
18
30
00
78
0C
7C
FC
CC
FC
76
ENDCHAR
STARTCHAR acircumflex
ENCODING 226
SWIDTH 500 0
DWIDTH 8 0
BBX 7 10 0 0
BITMAP
30
68
00
78
0C
7C
FC
CC
FE
76
ENDCHAR
STARTCHAR adieresis
ENCODING 228
SWIDTH 500 0
DWIDTH 8 0
BBX 7 9 0 0
BITMAP
6C
00
78
0C
7C
FC
CC
FC
76
ENDCHAR
STARTCHAR aring
ENCODING 229
SWIDTH 500 0
DWIDTH 8 0
BBX 7 11 0 0
BITMAP
38
44
38
00
78
0C
7C
FC
CC
FC
76
ENDCHAR
STARTCHAR ae
ENCODING 230
SWIDTH 500 0
DWIDTH 8 0
BBX 7 8 0 0
BITMAP
EC
3E
1A
7A
DE
D8
FA
6E
ENDCHAR
STARTCHAR ccedilla
ENCODING 231
SWIDTH 500 0
DWIDTH 8 0
BBX 7 9 0 -2
BITMAP
7C
FE
C6
C0
C6
FE
7C
08
18
ENDCHAR
STARTCHAR egrave
ENCODING 232
SWIDTH 500 0
DWIDTH 8 0
BBX 7 10 0 0
BITMAP
30
18
00
7C
FE
C6
FE
C0
FE
7C
ENDCHAR
STARTCHAR eacute
ENCODING 233
SWIDTH 500 0
DWIDTH 8 0
BBX 7 10 0 0
BITMAP
18
30
00
7C
FE
C6
FE
C0
FE
7C
ENDCHAR
STARTCHAR ecircumflex
ENCODING 234
SWIDTH 500 0
DWIDTH 8 0
BBX 7 10 0 0
BITMAP
30
68
00
7C
FE
C6
FE
C0
FE
7C
ENDCHAR
STARTCHAR edieresis
ENCODING 235
SWIDTH 500 0
DWIDTH 8 0
BBX 7 9 0 0
BITMAP
6C
00
7C
FE
C6
FE
C0
FE
7C
ENDCHAR
STARTCHAR igrave
ENCODING 236
SWIDTH 500 0
DWIDTH 8 0
BBX 4 10 1 0
BITMAP
C0
60
00
E0
E0
60
60
60
F0
F0
ENDCHAR
STARTCHAR iacute
ENCODING 237
SWIDTH 500 0
DWIDTH 8 0
BBX 4 10 1 0
BITMAP
60
C0
00
E0
E0
60
60
60
F0
F0
ENDCHAR
STARTCHAR icircumflex
ENCODING 238
SWIDTH 500 0
DWIDTH 8 0
BBX 4 10 1 0
BITMAP
60
D0
00
E0
E0
60
60
60
F0
F0
ENDCHAR
STARTCHAR idieresis
ENCODING 239
SWIDTH 500 0
DWIDTH 8 0
BBX 6 9 0 0
BITMAP
CC
00
70
70
30
30
30
78
78
ENDCHAR
STARTCHAR ntilde
ENCODING 241
SWIDTH 500 0
DWIDTH 8 0
BBX 7 10 0 0
BITMAP
32
4C
00
DC
FE
66
66
66
66
66
ENDCHAR
STARTCHAR ograve
ENCODING 242
SWIDTH 500 0
DWIDTH 8 0
BBX 7 10 0 0
BITMAP
30
18
00
7C
FE
C6
C6
C6
FE
7C
ENDCHAR
STARTCHAR oacute
ENCODING 243
SWIDTH 500 0
DWIDTH 8 0
BBX 7 10 0 0
BITMAP
18
30
00
7C
FE
C6
C6
C6
FE
7C
ENDCHAR
STARTCHAR ocircumflex
ENCODING 244
SWIDTH 500 0
DWIDTH 8 0
BBX 7 10 0 0
BITMAP
38
6C
00
7C
FE
C6
C6
C6
FE
7C
ENDCHAR
STARTCHAR odieresis
ENCODING 246
SWIDTH 500 0
DWIDTH 8 0
BBX 7 9 0 0
BITMAP
6C
00
7C
FE
C6
C6
C6
FE
7C
ENDCHAR
STARTCHAR divide
ENCODING 247
SWIDTH 500 0
DWIDTH 8 0
BBX 6 8 0 1
BITMAP
30
30
00
FC
FC
00
30
30
ENDCHAR
STARTCHAR ugrave
ENCODING 249
SWIDTH 500 0
DWIDTH 8 0
BBX 7 10 0 0
BITMAP
60
30
00
CC
CC
CC
CC
CC
FE
76
ENDCHAR
STARTCHAR uacute
ENCODING 250
SWIDTH 500 0
DWIDTH 8 0
BBX 7 10 0 0
BITMAP
18
30
00
CC
CC
CC
CC
CC
FE
76
ENDCHAR
STARTCHAR ucircumflex
ENCODING 251
SWIDTH 500 0
DWIDTH 8 0
BBX 7 10 0 0
BITMAP
30
68
00
CC
CC
CC
CC
CC
FE
76
ENDCHAR
STARTCHAR udieresis
ENCODING 252
SWIDTH 500 0
DWIDTH 8 0
BBX 7 9 0 0
BITMAP
CC
00
CC
CC
CC
CC
CC
FE
76
ENDCHAR
STARTCHAR ydieresis
ENCODING 255
SWIDTH 500 0
DWIDTH 8 0
BBX 7 10 0 -1
BITMAP
66
00
E6
66
66
7E
3E
06
7E
7C
ENDCHAR
STARTCHAR florin
ENCODING 402
SWIDTH 500 0
DWIDTH 8 0
BBX 6 12 1 -1
BITMAP
1C
3C
30
30
FC
FC
30
30
30
30
F0
E0
ENDCHAR
STARTCHAR Gamma
ENCODING 915
SWIDTH 500 0
DWIDTH 8 0
BBX 7 10 0 0
BITMAP
FE
FE
66
60
60
60
60
60
F8
F8
ENDCHAR
STARTCHAR Theta
ENCODING 920
SWIDTH 500 0
DWIDTH 8 0
BBX 7 11 0 0
BITMAP
38
6C
C6
C6
FE
FE
C6
C6
C6
6C
38
ENDCHAR
STARTCHAR Sigma
ENCODING 931
SWIDTH 500 0
DWIDTH 8 0
BBX 7 11 0 0
BITMAP
FE
FE
E0
70
38
18
38
70
E0
FE
FE
ENDCHAR
STARTCHAR Phi
ENCODING 934
SWIDTH 500 0
DWIDTH 8 0
BBX 6 11 0 0
BITMAP
78
30
78
FC
B4
B4
B4
FC
78
30
78
ENDCHAR
STARTCHAR uni03A9
ENCODING 937
SWIDTH 500 0
DWIDTH 8 0
BBX 7 11 0 0
BITMAP
38
7C
C6
C6
C6
C6
C6
44
6C
EE
EE
ENDCHAR
STARTCHAR alpha
ENCODING 945
SWIDTH 500 0
DWIDTH 8 0
BBX 7 8 0 0
BITMAP
76
FE
CC
CC
CC
CE
FE
76
ENDCHAR
STARTCHAR delta
ENCODING 948
SWIDTH 500 0
DWIDTH 8 0
BBX 7 11 0 0
BITMAP
38
7C
66
30
38
6C
C6
C6
C6
7C
38
ENDCHAR
STARTCHAR epsilon
ENCODING 949
SWIDTH 500 0
DWIDTH 8 0
BBX 7 12 0 -1
BITMAP
1E
3E
60
C0
C0
FE
FE
C0
C0
60
3E
1E
ENDCHAR
STARTCHAR pi
ENCODING 960
SWIDTH 500 0
DWIDTH 8 0
BBX 7 8 0 0
BITMAP
72
FE
EC
6C
6C
6C
EE
CE
ENDCHAR
STARTCHAR sigma
ENCODING 963
SWIDTH 500 0
DWIDTH 8 0
BBX 7 8 0 0
BITMAP
06
7E
F8
CC
CC
CC
FC
78
ENDCHAR
STARTCHAR tau
ENCODING 964
SWIDTH 500 0
DWIDTH 8 0
BBX 7 8 0 0
BITMAP
72
FE
BC
30
30
36
3E
1C
ENDCHAR
STARTCHAR phi
ENCODING 966
SWIDTH 500 0
DWIDTH 8 0
BBX 7 12 0 -1
BITMAP
06
08
7C
D6
D6
D6
D6
7C
10
20
20
C0
ENDCHAR
STARTCHAR bullet
ENCODING 8226
SWIDTH 500 0
DWIDTH 8 0
BBX 2 2 3 3
BITMAP
C0
C0
ENDCHAR
STARTCHAR exclamdbl
ENCODING 8252
SWIDTH 500 0
DWIDTH 8 0
BBX 6 11 0 0
BITMAP
CC
CC
CC
CC
CC
CC
CC
00
00
CC
CC
ENDCHAR
STARTCHAR uni207F
ENCODING 8319
SWIDTH 500 0
DWIDTH 8 0
BBX 5 6 0 5
BITMAP
B0
C8
C8
C8
C8
C8
ENDCHAR
STARTCHAR peseta
ENCODING 8359
SWIDTH 500 0
DWIDTH 8 0
BBX 7 11 0 0
BITMAP
F8
FC
CC
CC
FC
F8
C4
CE
C4
C4
C6
ENDCHAR
STARTCHAR arrowleft
ENCODING 8592
SWIDTH 500 0
DWIDTH 8 0
BBX 7 6 0 2
BITMAP
20
40
FE
FE
40
20
ENDCHAR
STARTCHAR arrowup
ENCODING 8593
SWIDTH 500 0
DWIDTH 8 0
BBX 6 11 1 0
BITMAP
30
78
B4
30
30
30
30
30
30
30
30
ENDCHAR
STARTCHAR arrowright
ENCODING 8594
SWIDTH 500 0
DWIDTH 8 0
BBX 7 6 0 2
BITMAP
08
04
FE
FE
04
08
ENDCHAR
STARTCHAR arrowdown
ENCODING 8595
SWIDTH 500 0
DWIDTH 8 0
BBX 6 11 1 0
BITMAP
30
30
30
30
30
30
30
30
B4
78
30
ENDCHAR
STARTCHAR arrowboth
ENCODING 8596
SWIDTH 500 0
DWIDTH 8 0
BBX 7 4 0 3
BITMAP
44
FE
FE
44
ENDCHAR
STARTCHAR arrowupdn
ENCODING 8597
SWIDTH 500 0
DWIDTH 8 0
BBX 6 11 1 0
BITMAP
30
78
B4
30
30
30
30
30
B4
78
30
ENDCHAR
STARTCHAR arrowupdnbse
ENCODING 8616
SWIDTH 500 0
DWIDTH 8 0
BBX 6 11 1 0
BITMAP
30
78
30
30
30
30
30
30
78
30
FC
ENDCHAR
STARTCHAR uni2219
ENCODING 8729
SWIDTH 500 0
DWIDTH 8 0
BBX 3 3 2 4
BITMAP
E0
E0
E0
ENDCHAR
STARTCHAR radical
ENCODING 8730
SWIDTH 500 0
DWIDTH 8 0
BBX 7 11 0 0
BITMAP
3E
3E
30
30
30
30
B0
F0
70
30
10
ENDCHAR
STARTCHAR infinity
ENCODING 8734
SWIDTH 500 0
DWIDTH 8 0
BBX 7 8 0 2
BITMAP
6C
FE
92
92
92
92
FE
6C
ENDCHAR
STARTCHAR orthogonal
ENCODING 8735
SWIDTH 500 0
DWIDTH 8 0
BBX 7 4 0 4
BITMAP
C0
C0
FE
FE
ENDCHAR
STARTCHAR intersection
ENCODING 8745
SWIDTH 500 0
DWIDTH 8 0
BBX 7 11 0 0
BITMAP
38
7C
C6
C6
C6
C6
C6
C6
C6
C6
C6
ENDCHAR
STARTCHAR approxequal
ENCODING 8776
SWIDTH 500 0
DWIDTH 8 0
BBX 5 8 1 1
BITMAP
40
E8
B8
10
40
E8
B8
10
ENDCHAR
STARTCHAR equivalence
ENCODING 8801
SWIDTH 500 0
DWIDTH 8 0
BBX 7 5 0 3
BITMAP
FE
00
FE
00
FE
ENDCHAR
STARTCHAR lessequal
ENCODING 8804
SWIDTH 500 0
DWIDTH 8 0
BBX 7 11 0 0
BITMAP
0C
18
30
60
60
30
18
0C
00
FE
FE
ENDCHAR
STARTCHAR greaterequal
ENCODING 8805
SWIDTH 500 0
DWIDTH 8 0
BBX 7 11 0 0
BITMAP
60
30
18
0C
0C
18
30
60
00
FE
FE
ENDCHAR
STARTCHAR house
ENCODING 8962
SWIDTH 500 0
DWIDTH 8 0
BBX 7 7 0 1
BITMAP
10
10
38
28
6C
44
FE
ENDCHAR
STARTCHAR revlogicalnot
ENCODING 8976
SWIDTH 500 0
DWIDTH 8 0
BBX 7 5 0 2
BITMAP
FE
FE
C0
C0
C0
ENDCHAR
STARTCHAR integraltp
ENCODING 8992
SWIDTH 500 0
DWIDTH 8 0
BBX 4 15 2 -4
BITMAP
60
F0
D0
D0
C0
C0
C0
C0
C0
C0
C0
C0
C0
C0
C0
ENDCHAR
STARTCHAR integralbt
ENCODING 8993
SWIDTH 500 0
DWIDTH 8 0
BBX 4 14 0 -2
BITMAP
30
30
30
30
30
30
30
30
30
30
B0
B0
F0
60
ENDCHAR
STARTCHAR SF100000
ENCODING 9472
SWIDTH 500 0
DWIDTH 8 0
BBX 8 1 0 4
BITMAP
FF
ENDCHAR
STARTCHAR SF110000
ENCODING 9474
SWIDTH 500 0
DWIDTH 8 0
BBX 1 16 3 -4
BITMAP
80
80
80
80
80
80
80
80
80
80
80
80
80
80
80
80
ENDCHAR
STARTCHAR SF010000
ENCODING 9484
SWIDTH 500 0
DWIDTH 8 0
BBX 5 9 3 -4
BITMAP
F8
80
80
80
80
80
80
80
80
ENDCHAR
STARTCHAR SF030000
ENCODING 9488
SWIDTH 500 0
DWIDTH 8 0
BBX 4 9 0 -4
BITMAP
F0
10
10
10
10
10
10
10
10
ENDCHAR
STARTCHAR SF020000
ENCODING 9492
SWIDTH 500 0
DWIDTH 8 0
BBX 5 8 3 4
BITMAP
80
80
80
80
80
80
80
F8
ENDCHAR
STARTCHAR SF040000
ENCODING 9496
SWIDTH 500 0
DWIDTH 8 0
BBX 4 8 0 4
BITMAP
10
10
10
10
10
10
10
F0
ENDCHAR
STARTCHAR SF080000
ENCODING 9500
SWIDTH 500 0
DWIDTH 8 0
BBX 5 16 3 -4
BITMAP
80
80
80
80
80
80
80
F8
80
80
80
80
80
80
80
80
ENDCHAR
STARTCHAR SF090000
ENCODING 9508
SWIDTH 500 0
DWIDTH 8 0
BBX 4 16 0 -4
BITMAP
10
10
10
10
10
10
10
F0
10
10
10
10
10
10
10
10
ENDCHAR
STARTCHAR SF060000
ENCODING 9516
SWIDTH 500 0
DWIDTH 8 0
BBX 8 9 0 -4
BITMAP
FF
10
10
10
10
10
10
10
10
ENDCHAR
STARTCHAR SF070000
ENCODING 9524
SWIDTH 500 0
DWIDTH 8 0
BBX 8 8 0 4
BITMAP
10
10
10
10
10
10
10
FF
ENDCHAR
STARTCHAR SF050000
ENCODING 9532
SWIDTH 500 0
DWIDTH 8 0
BBX 8 16 0 -4
BITMAP
10
10
10
10
10
10
10
FF
10
10
10
10
10
10
10
10
ENDCHAR
STARTCHAR SF430000
ENCODING 9552
SWIDTH 500 0
DWIDTH 8 0
BBX 8 3 0 3
BITMAP
FF
00
FF
ENDCHAR
STARTCHAR SF240000
ENCODING 9553
SWIDTH 500 0
DWIDTH 8 0
BBX 3 16 2 -4
BITMAP
A0
A0
A0
A0
A0
A0
A0
A0
A0
A0
A0
A0
A0
A0
A0
A0
ENDCHAR
STARTCHAR SF510000
ENCODING 9554
SWIDTH 500 0
DWIDTH 8 0
BBX 5 10 3 -4
BITMAP
F8
80
F8
80
80
80
80
80
80
80
ENDCHAR
STARTCHAR SF520000
ENCODING 9555
SWIDTH 500 0
DWIDTH 8 0
BBX 6 9 2 -4
BITMAP
FC
A0
A0
A0
A0
A0
A0
A0
A0
ENDCHAR
STARTCHAR SF390000
ENCODING 9556
SWIDTH 500 0
DWIDTH 8 0
BBX 6 10 2 -4
BITMAP
FC
80
BC
A0
A0
A0
A0
A0
A0
A0
ENDCHAR
STARTCHAR SF220000
ENCODING 9557
SWIDTH 500 0
DWIDTH 8 0
BBX 4 10 0 -4
BITMAP
F0
10
F0
10
10
10
10
10
10
10
ENDCHAR
STARTCHAR SF210000
ENCODING 9558
SWIDTH 500 0
DWIDTH 8 0
BBX 5 9 0 -4
BITMAP
F8
28
28
28
28
28
28
28
28
ENDCHAR
STARTCHAR SF250000
ENCODING 9559
SWIDTH 500 0
DWIDTH 8 0
BBX 5 10 0 -4
BITMAP
F8
08
E8
28
28
28
28
28
28
28
ENDCHAR
STARTCHAR SF500000
ENCODING 9560
SWIDTH 500 0
DWIDTH 8 0
BBX 5 9 3 3
BITMAP
80
80
80
80
80
80
F8
80
F8
ENDCHAR
STARTCHAR SF490000
ENCODING 9561
SWIDTH 500 0
DWIDTH 8 0
BBX 6 8 2 4
BITMAP
A0
A0
A0
A0
A0
A0
A0
FC
ENDCHAR
STARTCHAR SF380000
ENCODING 9562
SWIDTH 500 0
DWIDTH 8 0
BBX 6 9 2 3
BITMAP
A0
A0
A0
A0
A0
A0
BC
80
FC
ENDCHAR
STARTCHAR SF280000
ENCODING 9563
SWIDTH 500 0
DWIDTH 8 0
BBX 4 9 0 3
BITMAP
10
10
10
10
10
10
F0
10
F0
ENDCHAR
STARTCHAR SF270000
ENCODING 9564
SWIDTH 500 0
DWIDTH 8 0
BBX 5 8 0 4
BITMAP
28
28
28
28
28
28
28
F8
ENDCHAR
STARTCHAR SF260000
ENCODING 9565
SWIDTH 500 0
DWIDTH 8 0
BBX 5 9 0 3
BITMAP
28
28
28
28
28
28
E8
08
F8
ENDCHAR
STARTCHAR SF360000
ENCODING 9566
SWIDTH 500 0
DWIDTH 8 0
BBX 5 16 3 -4
BITMAP
80
80
80
80
80
80
F8
80
F8
80
80
80
80
80
80
80
ENDCHAR
STARTCHAR SF370000
ENCODING 9567
SWIDTH 500 0
DWIDTH 8 0
BBX 6 16 2 -4
BITMAP
A0
A0
A0
A0
A0
A0
A0
BC
A0
A0
A0
A0
A0
A0
A0
A0
ENDCHAR
STARTCHAR SF420000
ENCODING 9568
SWIDTH 500 0
DWIDTH 8 0
BBX 6 16 2 -4
BITMAP
A0
A0
A0
A0
A0
A0
BC
80
BC
A0
A0
A0
A0
A0
A0
A0
ENDCHAR
STARTCHAR SF190000
ENCODING 9569
SWIDTH 500 0
DWIDTH 8 0
BBX 4 16 0 -4
BITMAP
10
10
10
10
10
10
F0
10
F0
10
10
10
10
10
10
10
ENDCHAR
STARTCHAR SF200000
ENCODING 9570
SWIDTH 500 0
DWIDTH 8 0
BBX 5 16 0 -4
BITMAP
28
28
28
28
28
28
28
E8
28
28
28
28
28
28
28
28
ENDCHAR
STARTCHAR SF230000
ENCODING 9571
SWIDTH 500 0
DWIDTH 8 0
BBX 5 16 0 -4
BITMAP
28
28
28
28
28
28
E8
08
E8
28
28
28
28
28
28
28
ENDCHAR
STARTCHAR SF470000
ENCODING 9572
SWIDTH 500 0
DWIDTH 8 0
BBX 8 10 0 -4
BITMAP
FF
00
FF
10
10
10
10
10
10
10
ENDCHAR
STARTCHAR SF480000
ENCODING 9573
SWIDTH 500 0
DWIDTH 8 0
BBX 8 9 0 -4
BITMAP
FF
28
28
28
28
28
28
28
28
ENDCHAR
STARTCHAR SF410000
ENCODING 9574
SWIDTH 500 0
DWIDTH 8 0
BBX 8 10 0 -4
BITMAP
FF
00
EF
28
28
28
28
28
28
28
ENDCHAR
STARTCHAR SF450000
ENCODING 9575
SWIDTH 500 0
DWIDTH 8 0
BBX 8 9 0 3
BITMAP
10
10
10
10
10
10
FF
00
FF
ENDCHAR
STARTCHAR SF460000
ENCODING 9576
SWIDTH 500 0
DWIDTH 8 0
BBX 8 8 0 4
BITMAP
28
28
28
28
28
28
28
FF
ENDCHAR
STARTCHAR SF400000
ENCODING 9577
SWIDTH 500 0
DWIDTH 8 0
BBX 8 9 0 3
BITMAP
28
28
28
28
28
28
EF
00
FF
ENDCHAR
STARTCHAR SF540000
ENCODING 9578
SWIDTH 500 0
DWIDTH 8 0
BBX 8 16 0 -4
BITMAP
10
10
10
10
10
10
FF
10
FF
10
10
10
10
10
10
10
ENDCHAR
STARTCHAR SF530000
ENCODING 9579
SWIDTH 500 0
DWIDTH 8 0
BBX 8 16 0 -4
BITMAP
28
28
28
28
28
28
28
FF
28
28
28
28
28
28
28
28
ENDCHAR
STARTCHAR SF440000
ENCODING 9580
SWIDTH 500 0
DWIDTH 8 0
BBX 8 16 0 -4
BITMAP
28
28
28
28
28
28
EF
00
EF
28
28
28
28
28
28
28
ENDCHAR
STARTCHAR upblock
ENCODING 9600
SWIDTH 500 0
DWIDTH 8 0
BBX 8 8 0 4
BITMAP
FF
FF
FF
FF
FF
FF
FF
FF
ENDCHAR
STARTCHAR dnblock
ENCODING 9604
SWIDTH 500 0
DWIDTH 8 0
BBX 8 8 0 -4
BITMAP
FF
FF
FF
FF
FF
FF
FF
FF
ENDCHAR
STARTCHAR block
ENCODING 9608
SWIDTH 500 0
DWIDTH 8 0
BBX 8 16 0 -4
BITMAP
FF
FF
FF
FF
FF
FF
FF
FF
FF
FF
FF
FF
FF
FF
FF
FF
ENDCHAR
STARTCHAR lfblock
ENCODING 9612
SWIDTH 500 0
DWIDTH 8 0
BBX 4 16 0 -4
BITMAP
F0
F0
F0
F0
F0
F0
F0
F0
F0
F0
F0
F0
F0
F0
F0
F0
ENDCHAR
STARTCHAR rtblock
ENCODING 9616
SWIDTH 500 0
DWIDTH 8 0
BBX 4 16 4 -4
BITMAP
F0
F0
F0
F0
F0
F0
F0
F0
F0
F0
F0
F0
F0
F0
F0
F0
ENDCHAR
STARTCHAR ltshade
ENCODING 9617
SWIDTH 500 0
DWIDTH 8 0
BBX 7 16 1 -4
BITMAP
22
88
22
88
22
88
22
88
22
88
22
88
22
88
22
88
ENDCHAR
STARTCHAR shade
ENCODING 9618
SWIDTH 500 0
DWIDTH 8 0
BBX 8 16 0 -4
BITMAP
55
AA
55
AA
55
AA
55
AA
55
AA
55
AA
55
AA
55
AA
ENDCHAR
STARTCHAR dkshade
ENCODING 9619
SWIDTH 500 0
DWIDTH 8 0
BBX 8 16 0 -4
BITMAP
EE
BB
EE
BB
EE
BB
EE
BB
EE
BB
EE
BB
EE
BB
EE
BB
ENDCHAR
STARTCHAR filledbox
ENCODING 9632
SWIDTH 500 0
DWIDTH 8 0
BBX 3 8 2 0
BITMAP
E0
E0
E0
E0
E0
E0
E0
E0
ENDCHAR
STARTCHAR filledrect
ENCODING 9644
SWIDTH 500 0
DWIDTH 8 0
BBX 7 3 0 4
BITMAP
FE
FE
FE
ENDCHAR
STARTCHAR triagup
ENCODING 9650
SWIDTH 500 0
DWIDTH 8 0
BBX 5 3 1 0
BITMAP
20
70
F8
ENDCHAR
STARTCHAR triagrt
ENCODING 9658
SWIDTH 500 0
DWIDTH 8 0
BBX 6 11 1 0
BITMAP
80
C0
E0
F0
F8
FC
F8
F0
E0
C0
80
ENDCHAR
STARTCHAR triagdn
ENCODING 9660
SWIDTH 500 0
DWIDTH 8 0
BBX 5 3 1 0
BITMAP
F8
70
20
ENDCHAR
STARTCHAR triaglf
ENCODING 9668
SWIDTH 500 0
DWIDTH 8 0
BBX 6 11 1 0
BITMAP
04
0C
1C
3C
7C
FC
7C
3C
1C
0C
04
ENDCHAR
STARTCHAR circle
ENCODING 9675
SWIDTH 500 0
DWIDTH 8 0
BBX 8 8 0 0
BITMAP
3C
7E
E7
C3
C3
E7
7E
3C
ENDCHAR
STARTCHAR invbullet
ENCODING 9688
SWIDTH 500 0
DWIDTH 8 0
BBX 8 16 0 -4
BITMAP
FF
FF
FF
FF
FF
FF
FF
E7
E7
FF
FF
FF
FF
FF
FF
FF
ENDCHAR
STARTCHAR invcircle
ENCODING 9689
SWIDTH 500 0
DWIDTH 8 0
BBX 8 16 0 -4
BITMAP
FF
FF
FF
FF
C3
81
18
3C
3C
18
81
C3
FF
FF
FF
FF
ENDCHAR
STARTCHAR smileface
ENCODING 9786
SWIDTH 500 0
DWIDTH 8 0
BBX 8 11 0 0
BITMAP
7E
81
A5
A5
81
99
81
A5
99
81
7E
ENDCHAR
STARTCHAR invsmileface
ENCODING 9787
SWIDTH 500 0
DWIDTH 8 0
BBX 8 11 0 0
BITMAP
7E
FF
DB
DB
FF
E7
FF
DB
E7
FF
7E
ENDCHAR
STARTCHAR sun
ENCODING 9788
SWIDTH 500 0
DWIDTH 8 0
BBX 7 9 0 0
BITMAP
10
92
7C
6C
C6
6C
7C
92
10
ENDCHAR
STARTCHAR female
ENCODING 9792
SWIDTH 500 0
DWIDTH 8 0
BBX 5 11 1 0
BITMAP
70
D8
88
88
D8
70
20
20
F8
20
20
ENDCHAR
STARTCHAR male
ENCODING 9794
SWIDTH 500 0
DWIDTH 8 0
BBX 5 11 1 0
BITMAP
20
70
A8
20
20
70
D8
88
88
D8
70
ENDCHAR
STARTCHAR spade
ENCODING 9824
SWIDTH 500 0
DWIDTH 8 0
BBX 7 11 0 0
BITMAP
10
38
7C
FE
FE
FE
FE
D6
10
10
38
ENDCHAR
STARTCHAR club
ENCODING 9827
SWIDTH 500 0
DWIDTH 8 0
BBX 7 11 0 0
BITMAP
10
38
7C
38
54
FE
FE
FE
54
10
38
ENDCHAR
STARTCHAR heart
ENCODING 9829
SWIDTH 500 0
DWIDTH 8 0
BBX 7 11 0 0
BITMAP
6C
FE
FE
FE
FE
FE
FE
FE
7C
38
10
ENDCHAR
STARTCHAR diamond
ENCODING 9830
SWIDTH 500 0
DWIDTH 8 0
BBX 7 11 0 0
BITMAP
10
10
38
38
7C
FE
7C
38
38
10
10
ENDCHAR
STARTCHAR musicalnote
ENCODING 9834
SWIDTH 500 0
DWIDTH 8 0
BBX 7 11 0 0
BITMAP
08
08
0C
0E
0A
0A
08
38
78
F8
70
ENDCHAR
STARTCHAR musicalnotedbl
ENCODING 9835
SWIDTH 500 0
DWIDTH 8 0
BBX 7 12 0 -1
BITMAP
20
30
28
24
32
2A
66
E2
C2
06
0E
0C
ENDCHAR
STARTCHAR uni3044
ENCODING 12356
SWIDTH 500 0
DWIDTH 8 0
BBX 1 1 7 -4
BITMAP
00
ENDCHAR
STARTCHAR uni3046
ENCODING 12358
SWIDTH 500 0
DWIDTH 8 0
BBX 1 1 7 -4
BITMAP
00
ENDCHAR
STARTCHAR uni304B
ENCODING 12363
SWIDTH 500 0
DWIDTH 8 0
BBX 1 1 7 -4
BITMAP
00
ENDCHAR
STARTCHAR uni3057
ENCODING 12375
SWIDTH 500 0
DWIDTH 8 0
BBX 1 1 7 -4
BITMAP
00
ENDCHAR
STARTCHAR uni306E
ENCODING 12398
SWIDTH 500 0
DWIDTH 8 0
BBX 1 1 7 -4
BITMAP
00
ENDCHAR
STARTCHAR uni3093
ENCODING 12435
SWIDTH 500 0
DWIDTH 8 0
BBX 1 1 7 -4
BITMAP
00
ENDCHAR
STARTCHAR .notdef
ENCODING -1
SWIDTH 500 0
DWIDTH 8 0
BBX 7 10 1 0
BITMAP
FE
82
82
82
82
82
82
82
82
FE
ENDCHAR
ENDFONT
